<svg t="1681639352585" class="icon" viewBox="0 0 1024 1024" version="1.1" xmlns="http://www.w3.org/2000/svg" p-id="6780"
     width="200" height="200">
    <path d="M922.026667 424.106667l-357.546667-277.333334a85.333333 85.333333 0 0 0-104.96 0l-357.546667 277.333334A42.666667 42.666667 0 0 0 128 500.693333h42.666667V768a128 128 0 0 0 128 128h426.666666a128 128 0 0 0 128-128V500.693333h42.666667a42.666667 42.666667 0 0 0 26.026667-76.586666zM725.333333 810.666667H298.666667a42.666667 42.666667 0 0 1-42.666667-42.666667V458.453333a42.666667 42.666667 0 0 0-16-33.493333L512 213.333333l272 211.626667a42.666667 42.666667 0 0 0-16 33.493333V768a42.666667 42.666667 0 0 1-42.666667 42.666667z"
          p-id="6781" fill="#e6e6e6"></path>
    <path d="M512 554.666667a128 128 0 0 0-128 128v213.333333h256V682.666667a128 128 0 0 0-128-128z m42.666667 256h-85.333334v-128a42.666667 42.666667 0 0 1 85.333334 0z"
          p-id="6782" fill="#e6e6e6"></path>
</svg>