<svg t="1682588917552" class="icon" viewBox="0 0 1024 1024" version="1.1" xmlns="http://www.w3.org/2000/svg"
     p-id="19411" width="200" height="200">
    <path d="M540.245333 485.717333L199.850667 50.773333A21.162667 21.162667 0 0 0 183.04 42.666667H79.957333A10.666667 10.666667 0 0 0 71.68 59.904L425.472 512 71.594667 964.096a10.666667 10.666667 0 0 0 8.448 17.237333h102.997333c6.570667 0 12.8-3.072 16.810667-8.106666l340.48-434.858667a42.666667 42.666667 0 0 0 0-52.650667z m405.333334 0L605.184 50.773333A21.162667 21.162667 0 0 0 588.373333 42.666667H485.376a10.666667 10.666667 0 0 0-8.448 17.237333L830.805333 512l-353.877333 452.096a10.666667 10.666667 0 0 0 8.362667 17.237333h103.082666c6.570667 0 12.8-3.072 16.810667-8.106666l340.48-434.858667a42.666667 42.666667 0 0 0 0-52.650667z"
          fill="#515151" fill-opacity=".65" p-id="19412"></path>
</svg>